<svg width="16" height="16" viewBox="0 0 16 16" fill="none" xmlns="http://www.w3.org/2000/svg">
<path fill-rule="evenodd" clip-rule="evenodd" d="M13.875 2H12V1.5625C12 1.25156 11.7484 1 11.4375 1C11.1266 1 10.875 1.25156 10.875 1.5625V2H5.125V1.5625C5.125 1.25156 4.87344 1 4.5625 1C4.25156 1 4 1.25156 4 1.5625V2H2.125C1.50313 2 1 2.50313 1 3.125V13.875C1 14.4969 1.50313 15 2.125 15H13.875C14.4969 15 15 14.4953 15 13.875V3.125C15 2.50313 14.4969 2 13.875 2ZM2.125 3.125H4V3.4375C4 3.74844 4.25156 4 4.5625 4C4.87344 4 5.125 3.74844 5.125 3.4375V3.125H10.875V3.4375C10.875 3.74844 11.1266 4 11.4375 4C11.7484 4 12 3.74844 12 3.4375V3.125H13.875V4.875H2.125V3.125ZM5.5 8H4.5C4.22344 8 4 8.22344 4 8.5C4 8.77656 4.22344 9 4.5 9H5.5C5.77656 9 6 8.77656 6 8.5C6 8.22344 5.77656 8 5.5 8ZM7.5 8H8.5C8.77656 8 9 8.22344 9 8.5C9 8.77656 8.77656 9 8.5 9H7.5C7.22344 9 7 8.77656 7 8.5C7 8.22344 7.22344 8 7.5 8ZM11.5 8H10.5C10.2234 8 10 8.22344 10 8.5C10 8.77656 10.2234 9 10.5 9H11.5C11.7766 9 12 8.77656 12 8.5C12 8.22344 11.7766 8 11.5 8ZM4.5 11.0312H5.5C5.77656 11.0312 6 11.2547 6 11.5312C6 11.8078 5.77656 12.0312 5.5 12.0312H4.5C4.22344 12.0312 4 11.8078 4 11.5312C4 11.2547 4.22344 11.0312 4.5 11.0312ZM8.5 11.0312H7.5C7.22344 11.0312 7 11.2547 7 11.5312C7 11.8078 7.22344 12.0312 7.5 12.0312H8.5C8.77656 12.0312 9 11.8078 9 11.5312C9 11.2547 8.77656 11.0312 8.5 11.0312Z" fill="currentColor"/>
</svg>
