<svg width="16" height="16" viewBox="0 0 16 16" fill="none" xmlns="http://www.w3.org/2000/svg">
<path d="M8.69182 8.00031L11.8565 4.83586C12.0478 4.64445 12.0478 4.33496 11.8565 4.1448C11.6653 3.95339 11.356 3.95339 11.166 4.1448L8 7.30801L4.83403 4.14356C4.64276 3.95215 4.33349 3.95215 4.14346 4.14356C3.95218 4.33496 3.95218 4.64445 4.14346 4.83462L7.30818 7.99907L4.14346 11.1648C3.95218 11.3562 3.95218 11.6657 4.14346 11.8558C4.23909 11.9515 4.36454 11.9988 4.48874 11.9988C4.61419 11.9988 4.73839 11.9515 4.83403 11.8558L8 8.69137L11.166 11.8571C11.2616 11.9528 11.3858 12 11.5113 12C11.6367 12 11.7609 11.9528 11.8565 11.8571C12.0478 11.6657 12.0478 11.3562 11.8565 11.166L8.69182 8.00031Z" fill="currentColor"/>
</svg>
