<svg width="24" height="24" viewBox="0 0 24 24" fill="none" xmlns="http://www.w3.org/2000/svg">
<path fill-rule="evenodd" clip-rule="evenodd" d="M22.2748 4.76807C22.1155 4.60876 21.8839 4.51996 21.6591 4.51996H17.3378V3.17368C17.3378 2.26318 16.5981 1.52344 15.6876 1.52344H8.31116C7.40067 1.52344 6.66092 2.26318 6.66092 3.17368V4.51996H2.31766C1.85669 4.51996 1.47949 4.89441 1.47949 5.35812C1.47949 5.82184 1.85394 6.19629 2.31766 6.19629H3.0574V20.7829C3.0574 21.6934 3.79715 22.4332 4.70764 22.4332H19.5264C20.4369 22.4332 21.1766 21.6934 21.1766 20.7829V6.19629H21.6586C22.1196 6.19629 22.5201 5.82184 22.5201 5.35812C22.5206 5.13565 22.4341 4.92737 22.2748 4.76807ZM3.97293 22.1097C3.93768 22.0776 3.90289 22.0454 3.86993 22.0097C3.90244 22.0454 3.93768 22.0776 3.97293 22.1097ZM4.09653 22.1379C4.12966 22.174 4.16339 22.2101 4.19653 22.2379C4.17581 22.2205 4.15624 22.1999 4.13552 22.1781C4.1231 22.165 4.11027 22.1514 4.09653 22.1379ZM15.6802 3.17871H8.30841V4.53415H15.6802V3.17871ZM19.5236 20.7806H4.70764V6.19629H6.84265H19.5236V20.7806ZM11.1456 9.84787C11.1456 9.38187 11.5224 9.00513 11.9884 9.00513C12.4544 9.00513 12.8311 9.38232 12.8311 9.84787V17.6669C12.8311 18.1329 12.4544 18.5097 11.9884 18.5097C11.5224 18.5097 11.1456 18.1329 11.1456 17.6669V9.84787ZM7.42355 9.00513C6.95755 9.00513 6.58081 9.38187 6.58081 9.84787V17.6669C6.58081 18.1329 6.95755 18.5097 7.42355 18.5097C7.88956 18.5097 8.2663 18.1329 8.2663 17.6669V9.84787C8.2663 9.38232 7.8891 9.00513 7.42355 9.00513ZM15.6638 9.84787C15.6638 9.38187 16.0405 9.00513 16.5065 9.00513C16.9725 9.00513 17.3492 9.38232 17.3492 9.84787V17.6669C17.3492 18.1329 16.9725 18.5097 16.5065 18.5097C16.0405 18.5097 15.6638 18.1329 15.6638 17.6669V9.84787Z" fill="currentColor"/>
</svg>
