<svg width="20px" height="20px" viewBox="0 0 612.017 612.017" xmlns="http://www.w3.org/2000/svg">
<path d="M606.521,291.429l-113.23-113.555c-7.495-7.515-19.656-7.515-27.15,0c-7.495,7.514-7.189,20.42-7.189,32.828v57.361
	H153.027v-57.361c0-12.408,0.306-25.314-7.189-32.828c-7.495-7.515-19.656-7.515-27.151,0L5.457,291.429
	c-3.996,4.015-5.698,9.331-5.43,14.57c-0.268,5.258,1.434,10.573,5.43,14.589l113.249,113.555c7.495,7.515,19.656,7.515,27.151,0
	c7.495-7.514,7.189-24.722,7.189-32.236v-57.361h305.924v57.361c0,12.408-0.307,24.722,7.188,32.236s19.656,7.515,27.151,0
	L606.56,320.587c3.996-4.015,5.697-9.331,5.43-14.589C612.218,300.759,610.518,295.443,606.521,291.429z" fill="currentColor"/>
</svg>
