<svg width="22" height="22" viewBox="0 0 21 21" fill="none" xmlns="http://www.w3.org/2000/svg">
<path d="M1.81657 7.11495L1.81629 7.11562C1.33002 8.26654 1.08398 9.48979 1.08398 10.748C1.08398 12.0061 1.32998 13.2294 1.81828 14.3824C2.28754 15.4949 2.96287 16.4946 3.81878 17.3505L3.81943 17.3512C4.67723 18.2069 5.67464 18.8798 6.78629 19.3508L6.78697 19.3511C7.93788 19.8373 9.16113 20.0834 10.4194 20.0834C11.6775 20.0834 12.9008 19.8374 14.0538 19.3491C15.1662 18.8798 16.166 18.2045 17.0219 17.3486L17.0225 17.3479C17.8782 16.4901 18.5512 15.4927 19.0221 14.3811L19.0224 14.3804C19.5087 13.2295 19.7547 12.0062 19.7547 10.748C19.7547 9.48968 19.5086 8.2662 19.0202 7.11305C18.5509 6.00081 17.8757 5.00125 17.0199 4.14548L17.0193 4.14483C16.1615 3.28915 15.1641 2.6162 14.0524 2.14523L14.0517 2.14494C12.9008 1.65867 11.6776 1.41264 10.4194 1.41264C9.16141 1.41264 7.9383 1.65856 6.78546 2.14671C5.67279 2.61598 4.67287 3.29139 3.81682 4.14743L3.81617 4.14809C2.96049 5.00589 2.28754 6.0033 1.81657 7.11495Z" stroke="currentColor" stroke-width="1.5"/>
<path d="M12.4316 15.4141C12.108 15.7377 11.5834 15.7377 11.2598 15.4141L7.55281 11.7071C7.16228 11.3166 7.16228 10.6834 7.55281 10.2929L11.2598 6.58594C11.5834 6.26233 12.108 6.26233 12.4316 6.58594C12.7552 6.90954 12.7552 7.43421 12.4316 7.75781L9.18945 11L12.4316 14.2422C12.7552 14.5658 12.7552 15.0905 12.4316 15.4141Z" fill="currentColor"/>
</svg>
