<svg width="22" height="22" viewBox="0 0 22 22" fill="none" xmlns="http://www.w3.org/2000/svg">
<path d="M2.38689 7.37666L2.3866 7.37734C1.90033 8.52826 1.6543 9.75151 1.6543 11.0097C1.6543 12.2679 1.9003 13.4912 2.38859 14.6442C2.85785 15.7566 3.53318 16.7563 4.38909 17.6123L4.38975 17.6129C5.24754 18.4686 6.24496 19.1415 7.3566 19.6125L7.35728 19.6128C8.5082 20.0991 9.73145 20.3451 10.9897 20.3451C12.2478 20.3451 13.4711 20.0991 14.6241 19.6108C15.7365 19.1415 16.7363 18.4662 17.5922 17.6103L17.5928 17.6096C18.4485 16.7518 19.1215 15.7544 19.5924 14.6428L19.5927 14.6421C20.079 13.4912 20.325 12.2679 20.325 11.0097C20.325 9.7514 20.079 8.52792 19.5905 7.37477C19.1213 6.26253 18.446 5.26297 17.5902 4.4072L17.5896 4.40654C16.7318 3.55087 15.7344 2.87791 14.6227 2.40695L14.6221 2.40666C13.4711 1.92039 12.2479 1.67436 10.9897 1.67436C9.73134 1.67436 8.50786 1.92043 7.3547 2.40888C6.24247 2.87813 5.24291 3.55338 4.38714 4.40915L4.38648 4.40981C3.5308 5.2676 2.85785 6.26502 2.38689 7.37666Z" stroke="currentColor" stroke-width="1.5"/>
<path d="M8.5 15.1667C8.5 15.6269 8.1269 16 7.66667 16C7.20643 16 6.83333 15.6269 6.83333 15.1667L6.83333 6.83333C6.83333 6.3731 7.20643 6 7.66667 6C8.1269 6 8.5 6.3731 8.5 6.83333L8.5 15.1667Z" fill="currentColor"/>
<path d="M14.9316 15.4141C14.608 15.7377 14.0834 15.7377 13.7598 15.4141L10.0528 11.7071C9.66228 11.3166 9.66228 10.6834 10.0528 10.2929L13.7598 6.58594C14.0834 6.26233 14.608 6.26233 14.9316 6.58594C15.2552 6.90954 15.2552 7.43421 14.9316 7.75781L11.6895 11L14.9316 14.2422C15.2552 14.5658 15.2552 15.0905 14.9316 15.4141Z" fill="currentColor"/>
</svg>
