<svg width="14" height="14" viewBox="0 0 14 14" fill="none" xmlns="http://www.w3.org/2000/svg">
<g opacity="0.7">
<path fill-rule="evenodd" clip-rule="evenodd" d="M11.9549 11.1601L15.1689 14.3726C15.3877 14.5929 15.3877 14.9491 15.1705 15.1694C15.0596 15.2788 14.9174 15.3335 14.7721 15.3335C14.6268 15.3335 14.483 15.2788 14.3736 15.1694L11.1596 11.9554C10.1205 12.8163 8.78769 13.3335 7.33301 13.3335C4.01895 13.3335 1.33301 10.6476 1.33301 7.3335C1.33301 4.01943 4.01895 1.3335 7.33301 1.3335C10.6471 1.3335 13.333 4.01943 13.333 7.3335C13.333 8.78818 12.8158 10.121 11.9549 11.1601ZM7.33301 12.2085C7.99238 12.2085 8.62988 12.0804 9.22988 11.8257C9.81113 11.5804 10.3314 11.2288 10.7799 10.7804C11.2283 10.3319 11.5799 9.81006 11.8252 9.23037C12.0799 8.63037 12.208 7.99287 12.208 7.3335C12.208 6.67412 12.0799 6.03662 11.8252 5.43662C11.5799 4.85693 11.2283 4.33506 10.7799 3.88662C10.3314 3.43818 9.80957 3.08662 9.22988 2.84131C8.62988 2.58662 7.99238 2.4585 7.33301 2.4585C6.67363 2.4585 6.03613 2.58662 5.43613 2.84131C4.85645 3.08662 4.33457 3.43818 3.88613 3.88662C3.4377 4.33506 3.08613 4.85693 2.84082 5.43662C2.58613 6.03662 2.45801 6.67412 2.45801 7.3335C2.45801 7.99287 2.58613 8.63037 2.84082 9.23037C3.08613 9.81006 3.4377 10.3319 3.88613 10.7804C4.33457 11.2288 4.85645 11.5804 5.43613 11.8257C6.03613 12.0804 6.67363 12.2085 7.33301 12.2085Z" fill="currentColor"/>
</g>
</svg>
